<svg xmlns="http://www.w3.org/2000/svg" width="512" height="512" viewBox="0 0 512 512" role="img" aria-labelledby="title desc">
  <title id="title">Invoxia favicon</title>
  <desc id="desc">Compact Invoxia favicon mark.</desc>
  <defs>
    <linearGradient id="bg" x1="64" y1="48" x2="448" y2="464" gradientUnits="userSpaceOnUse">
      <stop offset="0" stop-color="#07111f"/>
      <stop offset=".55" stop-color="#10283c"/>
      <stop offset="1" stop-color="#06151b"/>
    </linearGradient>
    <linearGradient id="accent" x1="128" y1="120" x2="384" y2="392" gradientUnits="userSpaceOnUse">
      <stop offset="0" stop-color="#1ee7ff"/>
      <stop offset=".5" stop-color="#34d399"/>
      <stop offset="1" stop-color="#fbbf24"/>
    </linearGradient>
  </defs>
  <rect x="38" y="38" width="436" height="436" rx="116" fill="url(#bg)"/>
  <path d="M160 132h192c30 0 54 24 54 54v140c0 30-24 54-54 54H160c-30 0-54-24-54-54V186c0-30 24-54 54-54Z" fill="none" stroke="url(#accent)" stroke-width="24"/>
  <path d="M174 198h160M174 256h112M174 314h160" fill="none" stroke="#f8fafc" stroke-width="34" stroke-linecap="round"/>
  <circle cx="340" cy="256" r="25" fill="#1ee7ff"/>
  <circle cx="376" cy="256" r="14" fill="#34d399"/>
</svg>
