<svg xmlns="http://www.w3.org/2000/svg" width="2400" height="760" viewBox="0 0 2400 760" role="img" aria-labelledby="title desc">
  <title id="title">Invoxia AI logo</title>
  <desc id="desc">Professional black and gold Invoxia AI logo with I monogram.</desc>
  <defs>
    <linearGradient id="black" x1="104" y1="104" x2="656" y2="656" gradientUnits="userSpaceOnUse">
      <stop offset="0" stop-color="#111111"/>
      <stop offset=".55" stop-color="#181818"/>
      <stop offset="1" stop-color="#050505"/>
    </linearGradient>
    <linearGradient id="gold" x1="300" y1="218" x2="540" y2="542" gradientUnits="userSpaceOnUse">
      <stop offset="0" stop-color="#fff2b8"/>
      <stop offset=".42" stop-color="#d4af37"/>
      <stop offset="1" stop-color="#8d6418"/>
    </linearGradient>
    <filter id="shadow" x="-20%" y="-20%" width="140%" height="140%">
      <feDropShadow dx="0" dy="20" stdDeviation="24" flood-color="#000000" flood-opacity=".2"/>
    </filter>
  </defs>
  <rect width="2400" height="760" fill="#ffffff"/>
  <g filter="url(#shadow)">
    <rect x="104" y="104" width="552" height="552" rx="132" fill="url(#black)"/>
    <path d="M284 260h192" fill="none" stroke="#ffffff" stroke-width="50" stroke-linecap="round"/>
    <path d="M380 290v180" fill="none" stroke="#ffffff" stroke-width="78" stroke-linecap="round"/>
    <path d="M284 500h192" fill="none" stroke="#ffffff" stroke-width="50" stroke-linecap="round"/>
    <path d="M380 300v160" fill="none" stroke="url(#gold)" stroke-width="16" stroke-linecap="round"/>
    <circle cx="516" cy="316" r="19" fill="url(#gold)"/>
    <circle cx="546" cy="380" r="13" fill="#fff2b8"/>
    <circle cx="516" cy="444" r="19" fill="url(#gold)"/>
    <path d="M516 316c22 19 30 41 30 64s-8 45-30 64" fill="none" stroke="#d4af37" stroke-width="11" stroke-linecap="round"/>
  </g>
  <text x="744" y="386" font-family="Segoe UI, Inter, Arial, sans-serif" font-size="176" font-weight="800" letter-spacing="0" fill="#161616">Invoxia</text>
  <text x="754" y="497" font-family="Segoe UI, Inter, Arial, sans-serif" font-size="72" font-weight="600" letter-spacing="7" fill="#9a6b12">AI ASSISTANT</text>
  <path d="M754 556h620" stroke="#e5e7eb" stroke-width="10" stroke-linecap="round"/>
  <path d="M754 556h250" stroke="#d4af37" stroke-width="10" stroke-linecap="round"/>
</svg>
