<svg xmlns="http://www.w3.org/2000/svg" width="2400" height="760" viewBox="0 0 2400 760" role="img" aria-labelledby="title desc">
  <title id="title">Invoxia AI logo</title>
  <desc id="desc">Horizontal Invoxia AI logo with monogram and wordmark.</desc>
  <defs>
    <linearGradient id="bg" x1="80" y1="76" x2="608" y2="684" gradientUnits="userSpaceOnUse">
      <stop offset="0" stop-color="#07111f"/>
      <stop offset=".52" stop-color="#10283c"/>
      <stop offset="1" stop-color="#06151b"/>
    </linearGradient>
    <linearGradient id="accent" x1="200" y1="176" x2="520" y2="584" gradientUnits="userSpaceOnUse">
      <stop offset="0" stop-color="#1ee7ff"/>
      <stop offset=".48" stop-color="#34d399"/>
      <stop offset="1" stop-color="#fbbf24"/>
    </linearGradient>
    <linearGradient id="word" x1="720" y1="198" x2="1800" y2="494" gradientUnits="userSpaceOnUse">
      <stop offset="0" stop-color="#07111f"/>
      <stop offset=".7" stop-color="#10283c"/>
      <stop offset="1" stop-color="#155e75"/>
    </linearGradient>
    <filter id="soft-shadow" x="-20%" y="-20%" width="140%" height="140%">
      <feDropShadow dx="0" dy="22" stdDeviation="28" flood-color="#020617" flood-opacity=".24"/>
    </filter>
  </defs>
  <rect width="2400" height="760" rx="0" fill="#ffffff"/>
  <g filter="url(#soft-shadow)">
    <rect x="94" y="104" width="552" height="552" rx="148" fill="url(#bg)"/>
    <path d="M245 224h250c38 0 70 32 70 70v172c0 38-32 70-70 70H245c-38 0-70-32-70-70V294c0-38 32-70 70-70Z" fill="none" stroke="url(#accent)" stroke-width="28"/>
    <path d="M270 310h212M270 380h154M270 450h212" fill="none" stroke="#f8fafc" stroke-width="40" stroke-linecap="round"/>
    <circle cx="482" cy="380" r="28" fill="#1ee7ff"/>
    <circle cx="524" cy="380" r="16" fill="#34d399"/>
    <path d="M496 380h44M370 224v-50M370 586v-50M175 380h-50M615 380h-50" fill="none" stroke="url(#accent)" stroke-width="22" stroke-linecap="round"/>
  </g>
  <text x="730" y="385" font-family="Segoe UI, Inter, Arial, sans-serif" font-size="176" font-weight="800" letter-spacing="0" fill="url(#word)">Invoxia</text>
  <text x="739" y="494" font-family="Segoe UI, Inter, Arial, sans-serif" font-size="72" font-weight="600" letter-spacing="6" fill="#0f766e">AI ASSISTANT</text>
  <path d="M730 552h620" stroke="#d9e2e8" stroke-width="10" stroke-linecap="round"/>
  <path d="M730 552h240" stroke="url(#accent)" stroke-width="10" stroke-linecap="round"/>
</svg>
