<svg xmlns="http://www.w3.org/2000/svg" width="1024" height="1024" viewBox="0 0 1024 1024" role="img" aria-labelledby="title desc">
  <title id="title">Invoxia mark</title>
  <desc id="desc">A professional Invoxia AI monogram with a circuit-inspired assistant mark.</desc>
  <defs>
    <linearGradient id="bg" x1="152" y1="128" x2="872" y2="896" gradientUnits="userSpaceOnUse">
      <stop offset="0" stop-color="#07111f"/>
      <stop offset=".52" stop-color="#10283c"/>
      <stop offset="1" stop-color="#06151b"/>
    </linearGradient>
    <linearGradient id="accent" x1="260" y1="248" x2="784" y2="780" gradientUnits="userSpaceOnUse">
      <stop offset="0" stop-color="#1ee7ff"/>
      <stop offset=".48" stop-color="#34d399"/>
      <stop offset="1" stop-color="#fbbf24"/>
    </linearGradient>
    <filter id="soft-shadow" x="-20%" y="-20%" width="140%" height="140%">
      <feDropShadow dx="0" dy="30" stdDeviation="36" flood-color="#020617" flood-opacity=".36"/>
    </filter>
  </defs>
  <rect x="96" y="96" width="832" height="832" rx="220" fill="url(#bg)" filter="url(#soft-shadow)"/>
  <path d="M322 258h380c58 0 106 48 106 106v296c0 58-48 106-106 106H322c-58 0-106-48-106-106V364c0-58 48-106 106-106Z" fill="none" stroke="url(#accent)" stroke-width="42"/>
  <path d="M350 378h324M350 512h238M350 646h324" fill="none" stroke="#f8fafc" stroke-width="58" stroke-linecap="round"/>
  <circle cx="684" cy="512" r="42" fill="#1ee7ff"/>
  <circle cx="744" cy="512" r="24" fill="#34d399"/>
  <path d="M704 512h64M512 258v-70M512 836v-70M216 512h-70M878 512h-70" fill="none" stroke="url(#accent)" stroke-width="34" stroke-linecap="round"/>
</svg>
